<?xml version="1.0" standalone="no"?>
<!DOCTYPE svg PUBLIC "-//W3C//DTD SVG 20010904//EN"
 "http://www.w3.org/TR/2001/REC-SVG-20010904/DTD/svg10.dtd">
<svg version="1.0" xmlns="http://www.w3.org/2000/svg"
 width="500.000000pt" height="500.000000pt" viewBox="0 0 500.000000 500.000000"
 preserveAspectRatio="xMidYMid meet">
<metadata>
Created by potrace 1.14, written by Peter Selinger 2001-2017
</metadata>
<g transform="translate(0.000000,500.000000) scale(0.100000,-0.100000)"
fill="#000000" stroke="none">
<path d="M3055 3519 c-188 -5 -216 -8 -268 -28 -135 -53 -203 -177 -147 -268
26 -43 54 -56 109 -50 34 4 52 12 73 36 30 34 37 75 13 85 -16 6 -20 43 -7 63
13 21 79 43 127 43 25 0 73 -9 107 -21 150 -50 247 -1 239 122 -1 9 -9 18 -18
20 -10 2 -112 1 -228 -2z"/>
<path d="M1244 3476 c-86 -20 -152 -56 -206 -114 -68 -73 -84 -154 -41 -218
34 -52 124 -56 175 -8 31 30 38 78 13 88 -23 8 -18 51 10 85 34 40 82 54 172
49 67 -3 78 -6 99 -31 51 -60 8 -157 -70 -157 -14 0 -27 4 -30 8 -3 5 3 36 12
71 18 68 13 81 -34 81 -30 0 -49 -25 -83 -114 -51 -133 -107 -196 -173 -196
-28 0 -68 33 -68 57 0 16 -31 17 -62 2 -39 -18 -62 -59 -66 -119 -4 -67 19
-115 69 -142 105 -56 247 27 325 189 20 40 39 73 43 73 20 0 32 -33 40 -102
12 -110 34 -138 103 -138 47 1 100 35 145 93 l22 29 14 -34 c25 -57 60 -81
125 -86 72 -5 139 25 195 87 l36 40 20 -44 c25 -57 70 -85 134 -85 60 0 104
18 156 65 40 37 41 37 41 13 0 -14 9 -37 21 -52 27 -35 91 -36 140 -3 l34 23
28 -33 c48 -54 160 -68 234 -29 54 28 115 100 156 186 l42 85 42 -3 c52 -4
101 20 109 53 11 45 0 55 -61 55 -30 0 -55 1 -55 3 0 1 7 24 15 51 22 72 20
94 -10 102 -40 10 -68 -16 -94 -90 -20 -57 -26 -66 -48 -66 -38 0 -63 -18 -63
-46 0 -18 7 -28 20 -31 29 -8 21 -31 -21 -65 -65 -52 -169 -45 -169 12 0 31
-60 27 -90 -5 -27 -28 -75 -34 -84 -9 -12 31 29 156 98 304 31 66 32 86 7 100
-29 15 -62 -4 -93 -53 -22 -37 -80 -184 -117 -299 -21 -63 -102 -118 -177
-118 -32 0 -84 21 -84 33 0 8 24 12 69 12 60 0 73 3 96 25 81 76 68 185 -25
210 -95 26 -198 -38 -250 -155 -31 -69 -64 -98 -133 -117 -54 -14 -120 -2
-125 23 -2 14 5 15 47 11 61 -5 102 10 136 50 33 39 41 88 20 131 -20 44 -56
62 -115 61 -92 -3 -151 -51 -205 -167 -26 -54 -62 -87 -95 -87 -11 0 -90 74
-90 85 0 3 8 5 17 5 9 0 36 9 59 21 33 15 49 32 68 72 56 112 13 221 -104 262
-63 23 -192 28 -266 11z m623 -322 c10 -26 -11 -49 -43 -49 -30 0 -42 20 -30
51 8 20 65 18 73 -2z m373 -8 c0 -30 -22 -49 -52 -44 -49 7 -28 68 23 68 24 0
29 -4 29 -24z"/>
<path d="M3360 3457 c-35 -17 -85 -123 -148 -308 -59 -176 -66 -239 -31 -283
28 -36 91 -36 139 -1 19 14 38 32 43 40 12 21 27 18 27 -5 0 -33 35 -60 80
-60 58 0 107 48 165 163 48 94 89 147 112 147 15 0 33 -31 33 -58 0 -27 -38
-72 -61 -72 -40 0 -77 -29 -94 -74 -15 -38 -15 -48 -3 -73 25 -52 107 -40 150
23 27 40 38 43 38 9 0 -65 79 -85 147 -36 64 47 158 177 147 206 -9 23 -23 19
-65 -20 -43 -39 -80 -45 -117 -19 -28 20 -29 67 -1 95 20 20 22 20 46 3 26
-16 27 -16 45 6 14 17 18 36 16 69 -3 39 -7 48 -31 59 -40 19 -91 0 -126 -48
l-27 -38 -10 31 c-12 39 -54 71 -83 62 -34 -11 -60 -44 -100 -130 -42 -89 -59
-108 -93 -103 -30 4 -35 43 -14 105 21 62 21 119 0 127 -38 14 -90 -46 -120
-139 -22 -68 -50 -97 -89 -93 -23 2 -31 9 -33 26 -5 30 37 156 88 266 45 98
46 99 24 120 -19 19 -22 19 -54 3z"/>
<path d="M3505 3425 c-52 -51 -19 -115 60 -115 54 0 85 28 85 76 0 63 -96 89
-145 39z"/>
<path d="M3285 2708 c-27 -46 -76 -111 -110 -145 -50 -50 -72 -65 -121 -79
-99 -29 -152 -14 -409 115 -239 120 -303 144 -428 162 -238 32 -496 -65 -776
-294 -78 -64 -291 -273 -291 -286 0 -3 163 -82 362 -174 350 -163 363 -168
378 -149 241 308 367 429 526 504 60 28 79 33 149 32 69 0 89 -4 145 -31 36
-18 113 -70 172 -117 132 -103 183 -129 266 -134 57 -4 71 -1 139 33 113 56
237 184 383 397 40 57 48 74 38 84 -10 9 -129 61 -368 162 -4 1 -29 -35 -55
-80z"/>
</g>
</svg>
