<?xml version="1.0" standalone="no"?>
<!DOCTYPE svg PUBLIC "-//W3C//DTD SVG 20010904//EN"
 "http://www.w3.org/TR/2001/REC-SVG-20010904/DTD/svg10.dtd">
<svg version="1.0" xmlns="http://www.w3.org/2000/svg"
 width="291.000000pt" height="291.000000pt" viewBox="0 0 291.000000 291.000000"
 preserveAspectRatio="xMidYMid meet">
<metadata>
Created by potrace 1.14, written by Peter Selinger 2001-2017
</metadata>
<g transform="translate(0.000000,291.000000) scale(0.100000,-0.100000)"
fill="#000000" stroke="none">
<path d="M90 2450 c0 -253 1 -260 20 -260 19 0 20 7 20 240 l0 240 240 0 c233
0 240 1 240 20 0 19 -7 20 -260 20 l-260 0 0 -260z"/>
<path d="M2350 2690 c0 -19 7 -20 240 -20 l240 0 0 -240 c0 -233 1 -240 20
-240 19 0 20 7 20 260 l0 260 -260 0 c-253 0 -260 -1 -260 -20z"/>
<path d="M2430 2423 c-40 -27 -49 -45 -49 -93 0 -110 126 -149 196 -60 7 8 12
35 12 60 0 64 -43 110 -104 110 -17 0 -42 -8 -55 -17z"/>
<path d="M843 1996 c-67 -6 -124 -14 -128 -17 -3 -4 -26 -116 -51 -250 -56
-302 -67 -316 -134 -165 l-40 89 23 16 c75 51 127 140 127 218 0 66 -6 80 -41
98 -49 26 -274 12 -297 -18 -5 -7 -14 -50 -20 -97 -7 -47 -30 -183 -53 -303
-23 -120 -40 -220 -38 -222 9 -8 132 32 139 46 4 8 10 34 14 59 16 109 29 170
35 170 7 0 66 -219 60 -224 -2 -2 -47 -32 -99 -66 -81 -54 -184 -133 -305
-233 l-30 -25 35 -21 c19 -11 177 -106 350 -210 l315 -188 135 132 c198 193
311 278 445 332 58 23 84 28 155 28 77 -1 91 -4 149 -35 38 -21 110 -78 184
-147 154 -145 215 -178 314 -171 78 6 152 39 248 111 61 46 217 202 292 293
l42 50 -67 37 c-114 62 -114 61 -43 81 64 18 67 21 51 75 -5 18 -19 78 -30
132 l-20 99 39 77 c21 43 55 107 75 142 20 35 35 65 34 66 -7 7 -122 34 -128
30 -4 -2 -22 -38 -40 -80 -18 -41 -36 -75 -40 -75 -4 0 -11 38 -15 85 -4 47
-8 85 -10 85 -20 0 -140 -62 -139 -72 1 -7 12 -67 24 -133 l23 -120 -51 -100
c-139 -269 -179 -322 -286 -375 -115 -58 -213 -37 -394 83 l-107 71 51 9 52 9
16 112 c26 170 18 156 91 156 62 0 63 0 69 31 12 63 12 64 -54 61 l-60 -4 1
34 c0 18 6 56 12 83 l12 50 71 3 71 3 12 51 c6 28 10 52 9 53 -7 6 -292 -15
-298 -22 -4 -4 -13 -48 -19 -98 -15 -104 -79 -463 -87 -485 -4 -13 -6 -13 -14
0 -6 8 -10 27 -10 43 0 26 -2 27 -46 27 l-47 0 6 49 c6 51 92 447 104 478 5
12 2 15 -9 11 -8 -3 -45 -9 -81 -13 -57 -6 -68 -10 -72 -29 -3 -11 -23 -115
-45 -231 -23 -115 -42 -210 -43 -212 -2 -1 -25 4 -52 12 -26 8 -59 15 -73 15
-23 0 -24 3 -19 36 3 20 8 39 11 42 3 2 31 7 63 11 l58 6 6 49 5 48 -58 -5
-58 -5 1 31 c0 18 6 55 12 82 l12 50 67 3 66 3 12 50 c7 28 11 52 9 53 -8 8
-269 -20 -277 -29 -5 -6 -21 -80 -36 -165 -15 -85 -32 -176 -37 -201 l-10 -45
-77 -11 c-42 -6 -79 -10 -80 -8 -2 2 -1 22 3 43 7 44 20 52 93 52 39 0 42 2
42 28 0 15 3 38 7 51 6 24 6 24 -55 18 -70 -8 -69 -8 -52 73 22 99 13 90 85
90 l64 0 10 38 c14 49 14 72 -1 71 -7 -1 -68 -7 -135 -13z m-318 -130 c16 -12
17 -18 8 -39 -17 -36 -133 -113 -133 -87 0 11 20 110 25 128 6 16 76 15 100
-2z m384 -350 c9 -11 5 -15 -21 -19 -39 -6 -71 13 -41 24 29 12 50 10 62 -5z
m231 -11 c10 -12 10 -15 -3 -15 -8 0 -20 7 -27 15 -10 12 -10 15 3 15 8 0 20
-7 27 -15z m-355 -15 c3 -5 1 -10 -4 -10 -6 0 -11 5 -11 10 0 6 2 10 4 10 3 0
8 -4 11 -10z m1664 -93 c1 -27 1 -27 -28 -12 l-30 15 22 49 22 49 7 -37 c4
-20 7 -48 7 -64z m-1859 -21 c0 -2 -38 -25 -85 -51 -47 -27 -85 -51 -85 -54 1
-3 54 -40 118 -81 64 -41 166 -105 225 -144 l108 -69 32 30 c18 17 67 56 110
86 l78 56 -93 68 c-51 38 -117 86 -145 107 -29 21 -53 40 -53 42 0 3 24 -12
53 -33 202 -146 247 -179 247 -184 0 -3 -35 -30 -77 -59 -43 -30 -95 -70 -115
-88 l-38 -34 -52 33 c-243 154 -403 262 -403 271 0 6 38 33 85 60 85 49 90 51
90 44z m-140 -36 c0 -12 -56 -41 -64 -33 -12 12 -6 22 21 37 28 14 43 13 43
-4z m891 3 c13 -16 12 -17 -3 -4 -10 7 -18 15 -18 17 0 8 8 3 21 -13z m185
-25 l19 -21 -27 18 c-29 18 -34 25 -20 25 5 0 17 -10 28 -22z m739 12 c-3 -5
-10 -10 -16 -10 -5 0 -9 5 -9 10 0 6 7 10 16 10 8 0 12 -4 9 -10z m-669 -51
c24 -26 25 -30 7 -20 -13 6 -27 20 -33 31 -15 28 -8 25 26 -11z m-180 -7 c-3
-3 0 -12 6 -21 10 -13 10 -14 -2 -4 -16 15 -23 46 -8 37 5 -3 7 -9 4 -12z
m169 -32 c27 -27 47 -50 44 -50 -3 0 -27 23 -54 50 -27 28 -47 50 -44 50 3 0
27 -22 54 -50z m630 29 c-4 -5 -13 -9 -22 -9 -13 0 -13 3 -3 15 13 15 35 11
25 -6z m-1881 2 c8 -12 -42 -44 -55 -35 -7 4 -4 13 7 25 18 20 39 25 48 10z
m1906 -4 c0 -2 -12 -14 -27 -28 l-28 -24 24 28 c23 25 31 32 31 24z m-589 -58
c13 -26 7 -24 -22 7 -17 19 -19 23 -6 18 10 -3 22 -15 28 -25z m959 16 c-7 -8
-17 -15 -22 -15 -6 0 -5 7 2 15 7 8 17 15 22 15 6 0 5 -7 -2 -15z m-450 -4 c0
-12 -20 -25 -27 -18 -7 7 6 27 18 27 5 0 9 -4 9 -9z m-734 -22 c19 -21 19 -21
-11 -17 -19 2 -31 10 -33 21 -5 24 21 22 44 -4z m-1198 -9 c-8 -20 -131 -111
-146 -108 -12 2 5 21 58 65 64 53 99 70 88 43z m1318 -11 c25 -27 0 -23 -33 5
-25 22 -26 24 -6 19 12 -3 29 -14 39 -24z m-217 7 c9 -11 7 -15 -11 -19 -24
-7 -51 9 -42 24 8 14 40 11 53 -5z m471 -30 c22 -27 -5 -17 -31 10 -21 24 -22
26 -3 16 11 -6 26 -18 34 -26z m290 14 c0 -5 -10 -10 -22 -10 -19 0 -20 2 -8
10 19 13 30 13 30 0z m-850 -15 c18 -22 -28 -39 -50 -19 -13 13 -13 16 0 24
21 14 36 12 50 -5z m386 -17 l29 -33 -32 29 c-31 28 -38 36 -30 36 2 0 16 -15
33 -32z m929 22 c-3 -5 -11 -10 -16 -10 -6 0 -7 5 -4 10 3 6 11 10 16 10 6 0
7 -4 4 -10z m-870 -20 c10 -11 21 -17 25 -15 4 2 16 -5 26 -18 l19 -22 -24 20
c-13 11 -26 19 -30 19 -3 -1 -17 7 -30 17 -13 11 -19 19 -14 19 5 0 18 -9 28
-20z m215 -16 c13 -13 11 -13 -18 -3 -17 6 -35 16 -38 21 -9 15 37 -1 56 -18z
m110 6 c0 -5 -9 -10 -19 -10 -11 0 -23 5 -26 10 -4 6 5 10 19 10 14 0 26 -4
26 -10z m-865 -45 c-25 -18 -40 -19 -54 -1 -10 12 -7 17 16 30 24 13 30 13 43
0 12 -12 12 -16 -5 -29z m852 10 c0 -8 -4 -12 -9 -9 -5 3 -6 10 -3 15 9 13 12
11 12 -6z m503 0 c-7 -9 -15 -13 -17 -11 -7 7 7 26 19 26 6 0 6 -6 -2 -15z
m-524 -17 c19 -23 19 -23 -1 -7 -11 10 -29 19 -40 22 -19 4 -19 5 1 6 11 0 29
-9 40 -21z m-243 -23 c36 -45 30 -45 -13 0 -19 19 -30 35 -24 35 5 0 22 -16
37 -35z m-1595 5 c-7 -10 -14 -17 -17 -15 -4 4 18 35 25 35 2 0 -1 -9 -8 -20z
m915 -15 c4 -8 -5 -23 -20 -35 -24 -19 -26 -19 -39 -3 -11 15 -10 20 9 35 27
22 43 23 50 3z m1392 -5 c-3 -5 -11 -10 -16 -10 -6 0 -7 5 -4 10 3 6 11 10 16
10 6 0 7 -4 4 -10z m-390 -50 c10 -11 16 -20 13 -20 -3 0 -13 9 -23 20 -10 11
-16 20 -13 20 3 0 13 -9 23 -20z m330 -9 c-3 -6 -11 -11 -17 -11 -6 0 -6 6 2
15 14 17 26 13 15 -4z m-1455 -56 c-22 -23 -25 -24 -41 -9 -17 15 -16 17 9 39
23 21 29 22 41 10 13 -13 12 -18 -9 -40z m993 -50 l21 -30 -28 25 c-15 14 -37
39 -49 55 l-21 30 28 -25 c15 -14 37 -38 49 -55z m397 50 c-7 -8 -19 -15 -27
-15 -13 0 -13 3 -3 15 7 8 19 15 27 15 13 0 13 -3 3 -15z m-181 -39 c-3 -3
-11 5 -18 17 -13 21 -12 21 5 5 10 -10 16 -20 13 -22z m-1316 -58 c-24 -25
-29 -27 -42 -13 -13 13 -12 18 14 45 27 29 31 30 42 14 11 -15 9 -22 -14 -46z
m1403 37 c-22 -17 -46 -20 -46 -6 0 11 18 19 45 20 20 0 20 0 1 -14z m-200
-26 c13 -15 14 -19 3 -19 -17 0 -29 9 -47 32 -11 14 -11 16 7 11 11 -3 27 -14
37 -24z m112 -6 c2 -8 -6 -13 -22 -13 -28 0 -43 15 -24 23 20 8 41 3 46 -10z
m-1389 -56 c15 -18 -29 -60 -52 -51 -22 8 -21 13 5 41 25 27 31 28 47 10z"/>
<path d="M1984 1997 l-72 -10 -40 -206 c-46 -234 -78 -429 -71 -435 2 -2 38 2
79 10 41 7 99 13 129 14 44 0 52 -3 47 -16 -5 -12 -1 -15 22 -10 15 2 48 8 74
11 39 5 49 11 53 28 12 55 115 595 115 604 0 6 -25 6 -67 -1 l-68 -11 -56
-280 c-30 -154 -58 -287 -61 -295 -3 -8 -9 3 -13 28 l-8 42 -44 0 -45 0 7 53
c6 43 77 367 100 460 4 15 3 26 -1 26 -5 -1 -41 -6 -80 -12z"/>
<path d="M90 430 l0 -260 260 0 c253 0 260 1 260 20 0 19 -7 20 -240 20 l-240
0 0 240 c0 233 -1 240 -20 240 -19 0 -20 -7 -20 -260z"/>
<path d="M2830 450 l0 -240 -240 0 c-233 0 -240 -1 -240 -20 0 -19 7 -20 260
-20 l260 0 0 260 c0 253 -1 260 -20 260 -19 0 -20 -7 -20 -240z"/>
</g>
</svg>
